<svg width="20" height="20" viewBox="0 0 20 20" fill="none" xmlns="http://www.w3.org/2000/svg">
<path d="M18.4547 2.62077C18.1547 2.36637 17.6835 2.32997 17.1963 2.52557H17.1955C16.6831 2.73117 2.69111 8.73277 2.12151 8.97797C2.01791 9.01397 1.11311 9.35157 1.20631 10.1036C1.28951 10.7816 2.01671 11.0624 2.10551 11.0948L5.66271 12.3128C5.89871 13.0984 6.76871 15.9968 6.96111 16.616C7.08111 17.002 7.27671 17.5092 7.61951 17.6136C7.92031 17.7296 8.21951 17.6236 8.41311 17.4716L10.5879 15.4544L14.0987 18.1924L14.1823 18.2424C14.4207 18.348 14.6491 18.4008 14.8671 18.4008C15.0355 18.4008 15.1971 18.3692 15.3515 18.306C15.8775 18.09 16.0879 17.5888 16.1099 17.532L18.7323 3.90117C18.8923 3.17317 18.6699 2.80277 18.4547 2.62077ZM8.79991 12.8L7.59991 16L6.39991 12L15.5999 5.19997L8.79991 12.8Z" fill="#DEB392"/>
</svg>
