<svg width="20" height="20" viewBox="0 0 20 20" fill="none" xmlns="http://www.w3.org/2000/svg">
<path d="M10 2C5.582 2 2 5.582 2 10C2 13.7487 4.58133 16.8853 8.06133 17.7533C8.024 17.6453 8 17.52 8 17.3647V15.9973C7.67533 15.9973 7.13133 15.9973 6.99467 15.9973C6.44733 15.9973 5.96067 15.762 5.72467 15.3247C5.46267 14.8387 5.41733 14.0953 4.768 13.6407C4.57533 13.4893 4.722 13.3167 4.944 13.34C5.354 13.456 5.694 13.7373 6.014 14.1547C6.33267 14.5727 6.48267 14.6673 7.078 14.6673C7.36667 14.6673 7.79867 14.6507 8.20533 14.5867C8.424 14.0313 8.802 13.52 9.264 13.2787C6.6 13.0047 5.32867 11.6793 5.32867 9.88C5.32867 9.10533 5.65867 8.356 6.21933 7.72467C6.03533 7.098 5.804 5.82 6.29 5.33333C7.48867 5.33333 8.21333 6.11067 8.38733 6.32067C8.98467 6.116 9.64067 6 10.33 6C11.0207 6 11.6793 6.116 12.278 6.322C12.45 6.11333 13.1753 5.33333 14.3767 5.33333C14.8647 5.82067 14.6307 7.104 14.4447 7.72933C15.002 8.35933 15.33 9.10667 15.33 9.88C15.33 11.678 14.0607 13.0027 11.4007 13.278C12.1327 13.66 12.6667 14.7333 12.6667 15.542V17.3647C12.6667 17.434 12.6513 17.484 12.6433 17.5433C15.7607 16.4507 18 13.4907 18 10C18 5.582 14.418 2 10 2Z" fill="#DEB392"/>
</svg>
