<svg width="15" height="15" viewBox="0 0 15 15" fill="none" xmlns="http://www.w3.org/2000/svg">
<path d="M14.0126 14.5422C9.442 17.4863 -2.69973 5.43587 0.543403 1.05271C0.695683 0.846875 0.92461 0.708542 1.17413 0.643709L3.53566 0.0302099C3.95975 -0.0799566 4.4041 0.118543 4.60027 0.505709L5.86224 2.9972C5.99696 3.26304 5.99223 3.57704 5.84991 3.83904L4.86144 5.65687C4.66814 6.01237 4.73364 6.45103 5.02267 6.73636L8.32489 9.99636C8.607 10.2749 9.03784 10.3439 9.39457 10.1677L11.3045 9.22486C11.5538 9.10186 11.8461 9.09603 12.1 9.20919L14.4544 10.2582C14.8419 10.4309 15.0607 10.841 14.9852 11.2539C14.8137 12.193 14.63 13.1982 14.5252 13.7725C14.4676 14.0875 14.2839 14.3675 14.0126 14.5422Z" fill="#DEB392"/>
</svg>
