<svg width="143" height="51" viewBox="0 0 143 51" fill="none" xmlns="http://www.w3.org/2000/svg">
<path d="M2.35069 23.3423V0.392303H14.1041C16.2589 0.392303 18.0219 0.588457 19.1973 0.980765C20.3726 1.37307 21.3521 2.15769 21.9397 3.13846C22.7233 4.31538 23.1151 5.4923 22.9192 6.86538C22.9192 9.21923 21.9397 11.1808 19.7849 12.3577C19.1973 12.75 18.4137 13.1423 17.4343 13.1423C18.0219 13.3385 18.8055 13.7308 19.3932 14.1231C19.7849 14.5154 20.1767 14.9077 20.5685 15.3C20.9603 15.6923 21.3521 16.2808 21.548 16.6731L25.074 23.3423H16.8466L13.1247 16.2808C12.537 15.4962 12.1452 14.9077 11.7534 14.5154C11.1658 14.1231 10.5781 13.9269 9.99042 13.9269H9.40275V23.1462L2.35069 23.3423ZM9.40275 9.61154H12.3411C12.9288 9.61154 13.5164 9.41538 14.3 9.21923C14.6918 9.21923 15.0836 8.82692 15.4754 8.43461C16.2589 7.45384 16.063 6.27692 15.2795 5.4923C14.6918 5.29615 13.7123 5.1 12.537 5.1H9.40275V9.61154ZM0.783569 42.9577L7.44384 42.5654C7.63973 43.7423 7.83562 44.5269 8.4233 45.1154C9.20686 46.0962 10.1863 46.4885 11.5575 46.4885C12.537 46.4885 13.3206 46.2923 13.9082 45.7038C14.4959 45.3115 14.6918 44.7231 14.6918 44.1346C14.6918 43.5462 14.4959 42.9577 13.9082 42.5654C13.3206 42.1731 12.1452 41.5846 10.1863 41.1923C7.05206 40.4077 4.89727 39.6231 3.52604 38.4462C2.1548 37.2692 1.56713 35.7 1.56713 33.9346C1.56713 32.7577 1.95891 31.5808 2.54658 30.6C3.33014 29.4231 4.3096 28.6385 5.68083 28.05C7.05206 27.4615 9.01097 27.0692 11.3617 27.0692C14.3 27.0692 16.4548 27.6577 18.0219 28.6385C19.589 29.8154 20.3726 31.3846 20.7644 33.9346L14.1041 34.3269C13.9082 33.3461 13.5164 32.5615 12.9288 31.9731C12.3411 31.5808 11.5575 31.1885 10.5781 31.1885C9.79453 31.1885 9.20686 31.3846 8.81508 31.7769C8.4233 32.1692 8.2274 32.5615 8.2274 33.15C8.2274 33.5423 8.4233 33.9346 8.81508 34.1308C9.20686 34.5231 9.99042 34.7192 11.1658 34.9154C14.3 35.5038 16.4548 36.2885 17.826 36.8769C19.1973 37.6615 20.1767 38.4462 20.7644 39.4269C21.3521 40.4077 21.7438 41.5846 21.7438 42.7615C21.7438 44.1346 21.3521 45.7038 20.5685 46.8808C19.7849 48.0577 18.6096 49.0385 17.2384 49.6269C15.4754 50.6077 13.5164 51 11.3617 51C7.44384 51 4.70138 50.2154 3.33014 48.6461C1.76302 47.2731 0.97946 45.3115 0.783569 42.9577Z" fill="#DEB392"/>
<path d="M34.6726 41.1923L40.9411 43.1538C40.5493 44.7231 39.9617 46.2923 38.9822 47.4692C38.1987 48.6461 37.0233 49.4308 35.6521 50.0192C34.2809 50.6077 32.7137 51 30.5589 51C28.0124 51 26.0535 50.6077 24.4863 50.0192C22.9192 49.2346 21.548 48.0577 20.3726 46.2923C19.1973 44.5269 18.6096 42.1731 18.6096 39.2308C18.6096 35.5038 19.5891 32.5615 21.548 30.4038C23.5069 28.2462 26.4452 27.2654 30.1672 27.2654C33.1055 27.2654 35.2603 27.8538 37.0233 29.0308C38.5904 30.2077 39.9617 31.9731 40.7452 34.3269L34.4767 35.7C34.2809 35.1115 34.085 34.7192 33.6932 34.1308C33.3014 33.5423 32.9096 33.15 32.3219 32.9538C31.7343 32.7577 31.1466 32.5615 30.363 32.5615C28.7959 32.5615 27.4247 33.15 26.6411 34.5231C26.0535 35.5038 25.6617 37.0731 25.6617 39.0346C25.6617 41.5846 26.0535 43.35 26.837 44.3308C27.6206 45.3115 28.6 45.7038 30.1672 45.7038C31.5384 45.7038 32.5178 45.3115 33.3014 44.5269C33.8891 43.7423 34.4767 42.5654 34.6726 41.1923ZM49.1685 27.6577H56.2206V35.7H63.8603V27.6577H70.9124V50.6077H63.8603V41.3885H56.2206V50.6077H49.1685C49.1685 50.6077 49.1685 27.6577 49.1685 27.6577Z" fill="#DEB392"/>
<path d="M70.1288 39.0346C70.1288 35.3077 71.1082 32.3654 73.263 30.2077C75.4178 28.05 78.3562 27.0692 81.8822 27.0692C85.6041 27.0692 88.5425 28.05 90.6973 30.2077C92.8521 32.3654 94.0274 35.3077 94.0274 39.0346C94.0274 41.7808 93.6356 43.9385 92.6562 45.7038C91.8726 47.4692 90.5014 48.8423 88.7384 49.6269C86.9754 50.6077 84.8206 51 82.274 51C79.7274 51 77.5726 50.6077 75.8096 49.8231C74.0466 49.0385 72.6754 47.6654 71.6959 45.9C70.7165 44.1346 70.1288 41.7808 70.1288 39.0346ZM77.1808 39.2308C77.1808 41.5846 77.5726 43.1538 78.5521 44.3308C79.3356 45.3115 80.511 45.9 82.0781 45.9C83.6452 45.9 84.8206 45.5077 85.6041 44.3308C86.3877 43.35 86.7795 41.5846 86.7795 39.0346C86.7795 36.8769 86.3877 35.3077 85.4082 34.3269C84.6247 33.3462 83.4493 32.7577 81.8822 32.7577C80.511 32.7577 79.3356 33.3462 78.3562 34.3269C77.3767 35.3077 77.1808 36.8769 77.1808 39.2308Z" fill="#DEB392"/>
<path d="M124.194 27.6577H131.246V44.9192H142.216V50.6077H123.999L124.194 27.6577Z" fill="#DEB392"/>
<path d="M121.256 6.08077C116.751 0.196151 107.544 -0.196157 100.296 5.1C93.0478 10.3962 91.0889 19.6154 95.5944 25.5C100.1 31.3846 109.307 31.7769 116.555 26.4808C123.607 20.9885 125.762 11.7692 121.256 6.08077ZM116.163 25.8923C112.833 28.4423 108.915 29.8154 104.997 29.6192C101.275 29.4231 97.9451 27.8538 95.9862 25.1077C94.0273 22.3615 93.2437 18.8308 94.2232 15.1038C95.2026 11.3769 97.5533 7.84615 100.883 5.4923C104.214 2.9423 108.131 1.56923 112.049 1.76538C115.575 1.96154 118.905 3.53077 120.864 6.27692C122.823 9.02307 123.607 12.5538 122.627 16.2808C121.844 20.0077 119.493 23.3423 116.163 25.8923Z" fill="#DEB392"/>
<path d="M101.275 14.1231L103.822 12.1615L106.956 16.6731C107.544 17.4577 107.936 18.2423 108.131 19.0269C108.327 19.6154 108.327 20.4 107.936 20.9885C107.544 21.7731 107.152 22.3615 106.368 22.95C105.585 23.5385 104.801 23.9308 104.214 23.9308C103.626 24.1269 103.038 23.9308 102.451 23.7346C101.863 23.3423 101.275 22.95 100.884 22.3615L103.038 20.4C103.234 20.5962 103.43 20.9885 103.626 21.1846C103.822 21.3808 104.018 21.3808 104.214 21.3808C104.41 21.3808 104.605 21.3808 104.605 21.1846C104.801 20.9885 104.997 20.7923 104.997 20.4C104.997 20.0077 104.801 19.6154 104.41 19.2231L101.275 14.1231ZM108.915 16.8692L111.266 15.1038C111.462 15.4962 111.853 15.6923 112.245 15.6923C112.833 15.8885 113.225 15.6923 113.812 15.4962C114.204 15.3 114.4 15.1038 114.4 14.7115C114.596 14.3192 114.204 13.7308 113.812 13.5346H113.616C113.225 13.5346 112.833 13.7308 112.049 13.9269C110.678 14.5154 109.699 14.7115 108.915 14.5154C108.131 14.5154 107.544 14.1231 107.152 13.3385C106.76 12.9462 106.76 12.3577 106.76 11.9654C106.76 11.3769 106.956 10.7885 107.152 10.2C107.544 9.41538 108.131 8.82692 108.915 8.43461C109.894 7.65 110.874 7.25769 111.853 7.25769C112.637 7.25769 113.421 7.65 114.204 8.43461L111.658 10.3962C111.266 9.80769 110.286 9.61154 109.699 10.2C109.503 10.3962 109.307 10.5923 109.111 10.7885C109.111 10.9846 109.111 11.1808 109.307 11.3769C109.307 11.5731 109.503 11.7692 109.503 11.7692C109.699 11.7692 110.09 11.7692 110.482 11.3769C111.853 10.7885 112.833 10.5923 113.421 10.3962C114.008 10.2 114.596 10.3962 115.184 10.5923C115.575 10.7885 116.163 11.1808 116.359 11.5731C116.751 12.1615 116.947 12.75 116.947 13.3385C116.947 13.9269 116.751 14.7115 116.359 15.3C115.967 16.0846 115.379 16.6731 114.596 17.0654C113.225 18.0462 112.049 18.4385 111.07 18.2423C110.286 18.0462 109.503 17.6538 108.915 16.8692Z" fill="#DEB392"/>
<path d="M94.2233 15.3C94.2233 14.9077 94.4192 14.5154 94.4192 14.3192C94.2233 13.7308 94.0274 13.1423 93.6356 12.5538C93.048 11.5731 92.0685 10.7885 90.6973 10.0038C89.326 9.21923 87.1713 8.63077 84.037 8.04231C82.8617 7.84615 82.0781 7.45385 81.6863 7.25769C81.2945 7.06154 81.0987 6.66923 81.0987 6.27692C81.0987 5.68846 81.2945 5.29615 81.6863 4.90385C82.0781 4.51154 82.6658 4.31538 83.4493 4.31538C84.4288 4.31538 85.2123 4.51154 85.8 5.1C86.3877 5.49231 86.7795 6.27692 86.9754 7.45385L93.6356 7.06154C93.4397 4.70769 92.4603 2.94231 90.8932 1.76538C89.5219 0.588461 87.3671 0 84.4288 0C82.0781 0 80.1192 0.392308 78.748 0.980769C77.5726 1.37308 76.3973 2.35385 75.6137 3.53077C75.026 4.51154 74.6343 5.68846 74.6343 6.86538C74.6343 8.63077 75.4178 10.2 76.5932 11.3769C77.9644 12.5538 80.1192 13.5346 83.2534 14.1231C85.2123 14.5154 86.3877 14.9077 86.7795 15.4962C87.1712 15.8885 87.563 16.4769 87.563 17.0654C87.563 17.6538 87.1712 18.2423 86.7795 18.6346C86.1918 19.0269 85.4082 19.4192 84.4288 19.4192C83.0576 19.4192 82.0781 19.0269 81.2945 18.0462C80.9028 17.4577 80.511 16.6731 80.3151 15.4962L73.8507 15.6923C74.0466 18.0462 74.8302 19.8115 76.3973 21.3808C77.9644 22.95 80.511 23.7346 84.4288 23.7346C86.5836 23.7346 88.5425 23.3423 89.9137 22.7538C91.285 22.1654 92.4603 21.1846 93.2438 20.0077C93.4397 19.8115 93.4397 19.6154 93.6356 19.4192C93.6356 18.0462 93.8315 16.6731 94.2233 15.3Z" fill="#DEB392"/>
<path d="M121.844 30.4038C119.885 28.4423 117.339 27.4615 114.008 27.2654C111.266 28.8346 108.132 29.6192 105.193 29.6192C104.802 29.8154 104.606 30.2077 104.214 30.4038C102.059 32.5615 101.08 35.5038 101.08 39.2308C101.08 41.9769 101.667 44.1346 102.647 45.9C103.626 47.6654 104.997 48.8423 106.76 49.8231C108.523 50.6077 110.482 51 113.225 51C115.771 51 117.926 50.6077 119.689 49.6269C121.452 48.6461 122.628 47.2731 123.607 45.7038C124.586 43.9385 124.978 41.7808 124.978 39.0346C124.978 35.3077 123.803 32.3654 121.844 30.4038ZM116.555 44.1346C115.771 45.1154 114.596 45.7038 113.029 45.7038C111.462 45.7038 110.286 45.1154 109.503 44.1346C108.719 43.1538 108.132 41.3885 108.132 39.0346C108.132 36.6808 108.523 35.1115 109.503 33.9346C110.286 32.9538 111.658 32.3654 113.029 32.3654C114.596 32.3654 115.771 32.7577 116.555 33.9346C117.339 34.9154 117.926 36.4846 117.926 38.6423C117.926 41.3885 117.339 43.1538 116.555 44.1346Z" fill="#DEB392"/>
</svg>
